<?xml version="1.0" encoding="UTF-8"?>
<svg width="163px" height="161px" viewBox="0 0 163 161" version="1.1" xmlns="http://www.w3.org/2000/svg" xmlns:xlink="http://www.w3.org/1999/xlink" xmlns:sketch="http://www.bohemiancoding.com/sketch/ns">
    <!-- Generator: Sketch 3.5.1 (25234) - http://www.bohemiancoding.com/sketch -->
    <title>Group</title>
    <desc>Created with Sketch.</desc>
    <defs></defs>
    <g id="Page-1" stroke="none" stroke-width="1" fill="none" fill-rule="evenodd" sketch:type="MSPage">
        <g id="Sign-in" sketch:type="MSLayerGroup" transform="translate(-790.000000, -419.000000)">
            <g id="Web" sketch:type="MSShapeGroup">
                <g id="Sign-in">
                    <g id="Group" transform="translate(790.000000, 419.000000)">
                        <path d="M81.4996414,0 C36.6141225,0 4.26325641e-14,36.159956 4.26325641e-14,80.5006843 C4.26325641e-14,124.836583 36.6141225,161 81.4996414,161 C126.392206,161 163,124.836583 163,80.5006843 C163,36.159956 126.392206,0 81.4996414,0 L81.4996414,0 L81.4996414,0 Z M78.2431446,154.49081 C38.4490943,152.788678 6.52501425,120.211455 6.52501425,80.5006842 C6.52501425,40.7885852 38.4490943,8.2078605 78.2431446,6.51337575 L78.2431446,80.5006842 L78.2431446,154.49081 L78.2431446,154.49081 L78.2431446,154.49081 Z M82.819289,6.45710625 C123.512523,7.15785875 156.482728,40.1468795 156.482728,80.5006843 C156.482728,120.853805 123.512523,153.840089 82.8227933,154.547764 C106.580908,144.978769 123.883694,119.69549 123.883694,80.5006843 C123.883694,41.2996798 106.576711,16.0212308 82.819289,6.45710625 L82.819289,6.45710625 L82.819289,6.45710625 Z" id="path7752-3" fill="#FFFFFF"></path>
                        <g id="monoline_icons_35" transform="translate(11.000000, 37.000000)">
                            <path d="M46.3925,23.2995956 C46.3925,36.1675333 23.196,72.48724 23.196,72.48724 C23.196,72.48724 0,36.1675333 0,23.2995956 C0,10.4316578 10.3855,0 23.1965,0 C36.0075,0 46.3925,10.4316578 46.3925,23.2995956 L46.3925,23.2995956 Z" id="Shape" stroke="#4A4A4A" fill="#29B6F6"></path>
                            <ellipse id="Oval" stroke="#4A4A4A" fill="#FFFFFF" cx="23.3575" cy="23.4613111" rx="11.437" ry="11.4878311"></ellipse>
                            <path d="M95.1965,63.4773733 C95.1965,76.3453111 72,112.665018 72,112.665018 C72,112.665018 48.8035,76.3453111 48.8035,63.4773733 C48.8035,50.6094356 59.1895,40.1777778 72,40.1777778 C84.8115,40.1777778 95.1965,50.6094356 95.1965,63.4773733 L95.1965,63.4773733 Z" id="Shape" stroke="#4A4A4A" fill="#EF5350"></path>
                            <ellipse id="Oval" stroke="#545454" fill="#FFFFFF" cx="72.1615" cy="63.6390889" rx="11.437" ry="11.4878311"></ellipse>
                            <path d="M144,31.1679111 C144,44.0358489 120.8035,80.3555556 120.8035,80.3555556 C120.8035,80.3555556 97.607,44.0358489 97.607,31.1679111 C97.607,18.2999733 107.9925,7.86831556 120.8035,7.86831556 C133.615,7.86831556 144,18.2999733 144,31.1679111 L144,31.1679111 Z" id="Shape" stroke="#4A4A4A" fill="#FFFFFF"></path>
                            <ellipse id="Oval" stroke="#4A4A4A" fill="#FFFFFF" cx="120.9655" cy="31.3296267" rx="11.437" ry="11.4878311"></ellipse>
                            <path d="M14.3925,80.3555556 L32,80.3555556" id="Shape" stroke="#4A4A4A"></path>
                            <path d="M111.1965,96.4266667 L128.8035,96.4266667" id="Shape" stroke="#4A4A4A"></path>
                        </g>
                    </g>
                </g>
            </g>
        </g>
    </g>
</svg>